# xmcd
#
# Track frame offsets:
#	150
#	12760
#	23141
#	34767
#	48278
#	59981
#	72371
#	86907
#	98747
#	114653
#	124799
#	136268
#	147551
#	160747
#	172887
#	182650
#
# Disc length: 2560 seconds
#
# Revision: 4
# Processed by: cddbd v1.5.2PL0 Copyright (c) Steve Scherf et al.
# Submitted via: audiograbber 1.83.01
#
DISCID=de09fe10
DTITLE=Various Artist - Elite Country [Disc 1]
DYEAR=2002
DGENRE=Country
TTITLE0=Johnny Cash - Folsom Prison Blues
TTITLE1=George Hamilton IV - Abilene
TTITLE2=Ned Miller - Do What You Do Well
TTITLE3=Jimmy Dean - Big Bad John
TTITLE4=Don Gibson - I Can't Stop Loving You
TTITLE5=Bobby Helms - Fraulein
TTITLE6=Sandy Posey - Put Your Hand In The Hand
TTITLE7=Skeeter Davis - End Of The World
TTITLE8=Johnny Lee - Lookin' For Love
TTITLE9=Porter Wagoner - The Green Green Grass Of Home
TTITLE10=Patsy Cline - Walking After Midnight
TTITLE11=Hank Locklin - Send Me The Pillow You Dream On
TTITLE12=Jerry Lee Lewis - You Win Again
TTITLE13=Johnny Preston - Running Bear
TTITLE14=Murry Kellum - Long Tall Texan
TTITLE15=Jeannie C. Riley - The Girl Most Likely
EXTD=
EXTT0=
EXTT1=
EXTT2=
EXTT3=
EXTT4=
EXTT5=
EXTT6=
EXTT7=
EXTT8=
EXTT9=
EXTT10=
EXTT11=
EXTT12=
EXTT13=
EXTT14=
EXTT15=
PLAYORDER=
